<?xml version="1.0" encoding="UTF-8" standalone="no"?>
<!-- Created with Inkscape (http://www.inkscape.org/) -->

<svg
   xmlns:dc="http://purl.org/dc/elements/1.1/"
   xmlns:cc="http://creativecommons.org/ns#"
   xmlns:rdf="http://www.w3.org/1999/02/22-rdf-syntax-ns#"
   xmlns:svg="http://www.w3.org/2000/svg"
   xmlns="http://www.w3.org/2000/svg"
   xmlns:sodipodi="http://sodipodi.sourceforge.net/DTD/sodipodi-0.dtd"
   xmlns:inkscape="http://www.inkscape.org/namespaces/inkscape"
   width="40"
   height="40"
   id="svg2"
   version="1.1"
   inkscape:version="0.48.5 r10040"
   sodipodi:docname="logo.svg"
   inkscape:export-filename="/home/kivutar/cv/semantica.png"
   inkscape:export-xdpi="337.5"
   inkscape:export-ydpi="337.5">
  <defs
     id="defs4" />
  <sodipodi:namedview
     id="base"
     pagecolor="#ffffff"
     bordercolor="#666666"
     borderopacity="1.0"
     inkscape:pageopacity="0.0"
     inkscape:pageshadow="2"
     inkscape:zoom="4"
     inkscape:cx="17.811065"
     inkscape:cy="47.46266"
     inkscape:document-units="px"
     inkscape:current-layer="layer1"
     showgrid="true"
     inkscape:window-width="1440"
     inkscape:window-height="836"
     inkscape:window-x="0"
     inkscape:window-y="27"
     inkscape:window-maximized="1">
    <inkscape:grid
       type="xygrid"
       id="grid2985"
       empspacing="4"
       visible="true"
       enabled="true"
       snapvisiblegridlinesonly="true" />
  </sodipodi:namedview>
  <metadata
     id="metadata7">
    <rdf:RDF>
      <cc:Work
         rdf:about="">
        <dc:format>image/svg+xml</dc:format>
        <dc:type
           rdf:resource="http://purl.org/dc/dcmitype/StillImage" />
        <dc:title></dc:title>
      </cc:Work>
    </rdf:RDF>
  </metadata>
  <g
     inkscape:label="Calque 1"
     inkscape:groupmode="layer"
     id="layer1"
     transform="translate(0,-1012.3622)">
    <path
       style="font-size:medium;font-style:normal;font-variant:normal;font-weight:normal;font-stretch:normal;text-indent:0;text-align:start;text-decoration:none;line-height:normal;letter-spacing:normal;word-spacing:normal;text-transform:none;direction:ltr;block-progression:tb;writing-mode:lr-tb;text-anchor:start;baseline-shift:baseline;color:#000000;fill:#34495e;fill-opacity:1;fill-rule:nonzero;stroke:none;stroke-width:4;marker:none;visibility:visible;display:inline;overflow:visible;enable-background:accumulate;font-family:Sans;-inkscape-font-specification:Sans"
       d="m 20,1014.3622 c -0.274168,0 -0.54762,0.026 -0.8125,0.062 -0.200702,0.027 -0.396637,0.078 -0.59375,0.125 -0.188181,0.046 -0.381533,0.092 -0.5625,0.1563 -0.02214,0.01 -0.04044,0.023 -0.0625,0.031 -0.09661,0.035 -0.186974,0.054 -0.28125,0.094 -0.06506,0.027 -0.123322,0.065 -0.1875,0.094 -0.12604,0.059 -0.253798,0.1202 -0.375,0.1875 -0.04894,0.026 -0.107978,0.035 -0.15625,0.062 -0.107544,0.064 -0.209312,0.1488 -0.3125,0.2188 -0.05257,0.035 -0.104684,0.057 -0.15625,0.094 -0.107515,0.078 -0.210404,0.1656 -0.3125,0.25 -0.05091,0.042 -0.106567,0.081 -0.15625,0.125 -0.09433,0.083 -0.161016,0.1923 -0.25,0.2813 -0.103067,0.1026 -0.216131,0.201 -0.3125,0.3125 -0.02905,0.034 -0.06543,0.059 -0.09375,0.094 -0.05803,0.07 -0.100999,0.1453 -0.15625,0.2188 -0.06246,0.083 -0.129275,0.1641 -0.1875,0.25 -0.05508,0.082 -0.105758,0.1661 -0.15625,0.25 -0.05036,0.082 -0.109821,0.165 -0.15625,0.25 -0.04829,0.09 -0.08174,0.1894 -0.125,0.2812 -0.05052,0.1048 -0.111765,0.2045 -0.15625,0.3125 -0.129591,0.3238 -0.210858,0.6636 -0.28125,1 -0.0047,0.022 -0.02676,0.041 -0.03125,0.062 -0.02608,0.1317 -0.04534,0.2736 -0.0625,0.4063 -0.03356,0.2545 -0.0625,0.5181 -0.0625,0.7812 0,0.2742 0.02609,0.5476 0.0625,0.8125 0.0058,0.043 0.02454,0.083 0.03125,0.125 0.01401,0.087 0.01348,0.1641 0.03125,0.25 0.01492,0.074 0.04481,0.1449 0.0625,0.2188 0.04139,0.168 0.100865,0.3376 0.15625,0.5 0.0092,0.028 -0.0096,0.066 0,0.094 0.231192,1.0458 -0.02987,1.9972 -0.46875,2.75 -0.602365,0.6506 -1.43896,1.1778 -2.53125,1.25 -0.34375,0 -0.34375,0 -0.34375,0 -0.274168,0 -0.54762,0.026 -0.8125,0.062 -0.05102,0.01 -0.105424,0.023 -0.15625,0.031 -0.1589669,0.026 -0.3141007,0.055 -0.46875,0.094 -0.033389,0.01 -0.060493,0.023 -0.09375,0.031 -0.1233075,0.033 -0.2548574,0.053 -0.375,0.094 -0.052694,0.017 -0.1040127,0.044 -0.15625,0.062 -0.1215681,0.045 -0.2259449,0.1034 -0.34375,0.1563 -0.037632,0.016 -0.087672,0.014 -0.125,0.031 -0.1044489,0.05 -0.2113857,0.101 -0.3125,0.1563 -0.064357,0.034 -0.1242858,0.057 -0.1875,0.094 -0.1075436,0.064 -0.2093122,0.1488 -0.3125,0.2188 -0.060532,0.04 -0.1282902,0.082 -0.1875,0.125 -0.095257,0.07 -0.1903075,0.1435 -0.28125,0.2187 -0.3655683,0.2984 -0.7055888,0.6384 -1,1.0313 -0.058534,0.078 -0.1014689,0.1692 -0.15625,0.25 -0.4413401,0.6544 -0.7217085,1.3559 -0.875,2.0937 -0.00472,0.022 -0.026765,0.041 -0.03125,0.062 -0.032221,0.164 -0.075331,0.3346 -0.09375,0.5 -0.00474,0.042 0.00387,0.083 0,0.125 -0.00772,0.086 -0.02719,0.1642 -0.03125,0.25 -0.0052,0.1014 0,0.2099 0,0.3125 4.644e-4,0.1665 0.017195,0.3343 0.03125,0.5 0.00706,0.086 0.020564,0.1654 0.03125,0.25 0.00815,0.064 0.021078,0.1238 0.03125,0.1875 0.014009,0.087 0.013476,0.1641 0.03125,0.25 0.040276,0.1993 0.096174,0.3992 0.15625,0.5938 0.014482,0.046 0.046932,0.079 0.0625,0.125 0.013698,0.041 0.016666,0.084 0.03125,0.125 0.035395,0.097 0.053569,0.1869 0.09375,0.2812 0.026922,0.065 0.064523,0.1234 0.09375,0.1875 0.058986,0.126 0.1201714,0.2538 0.1875,0.375 0.026511,0.049 0.034582,0.108 0.0625,0.1563 0.063603,0.1075 0.1487743,0.2093 0.21875,0.3125 0.1470608,0.2204 0.2907424,0.4234 0.46875,0.625 0.083345,0.094 0.1922658,0.161 0.28125,0.25 0.1972287,0.1974 0.3958205,0.4219 0.625,0.5937 0.077959,0.058 0.1692184,0.1015 0.25,0.1563 0.084447,0.057 0.1635586,0.1043 0.25,0.1562 0.1100596,0.067 0.2292821,0.1273 0.34375,0.1875 0.4840926,0.2495 0.9808814,0.4234 1.5,0.5313 0.021582,0 0.040835,0.027 0.0625,0.031 0.10008,0.02 0.21182,0.048 0.3125,0.062 0.285425,0.042 0.578602,0.062 0.875,0.062 0.274168,0 0.54762,-0.026 0.8125,-0.062 0.01001,0 0.02125,0 0.03125,0 0.03395,0 0.05998,-0.026 0.09375,-0.031 0.157639,-0.025 0.313469,-0.056 0.46875,-0.094 0.120847,-0.03 0.257056,-0.057 0.375,-0.094 0.04329,-0.013 0.082,-0.048 0.125,-0.062 0.0194,-0.01 0.04319,0.01 0.0625,0 0.312713,-0.1078 0.613322,-0.2475 0.90625,-0.4063 0.04754,-0.026 0.109492,-0.035 0.15625,-0.062 0.291833,-0.1689 0.549619,-0.3739 0.8125,-0.5937 0.03971,-0.033 0.08616,-0.059 0.125,-0.094 0.09038,-0.08 0.163953,-0.1953 0.25,-0.2812 0.05758,-0.058 0.132262,-0.096 0.1875,-0.1563 0.13682,-0.1481 0.251675,-0.3042 0.375,-0.4687 0.07229,-0.096 0.153191,-0.1819 0.21875,-0.2813 l 0,-0.031 c 0.837001,-0.9652 2.005682,-1.2813 3,-1.2813 l 2,0 c 0.793936,0 1.682523,0.2043 2.4375,0.7813 -3.66e-4,0.7367 -0.236812,1.4101 -0.5625,1.9687 -0.602365,0.6506 -1.43896,1.1778 -2.53125,1.25 -0.34375,0 -0.261557,0 -0.34375,0 -0.274168,0 -0.54762,0.026 -0.8125,0.062 -0.05102,0.01 -0.105424,0.023 -0.15625,0.031 -0.158967,0.026 -0.314101,0.055 -0.46875,0.094 -0.03339,0.01 -0.06049,0.023 -0.09375,0.031 -0.123308,0.033 -0.254857,0.053 -0.375,0.094 -0.05269,0.017 -0.104013,0.044 -0.15625,0.062 -0.121568,0.045 -0.225945,0.1034 -0.34375,0.1563 -0.03763,0.016 -0.08767,0.014 -0.125,0.031 -0.104449,0.05 -0.211386,0.101 -0.3125,0.1563 -0.06436,0.034 -0.124286,0.057 -0.1875,0.094 -0.107544,0.064 -0.209312,0.1488 -0.3125,0.2188 -0.06053,0.04 -0.12829,0.082 -0.1875,0.125 -0.09526,0.07 -0.190307,0.1435 -0.28125,0.2187 -0.365568,0.2984 -0.705589,0.6384 -1,1.0313 -0.05853,0.078 -0.101469,0.1692 -0.15625,0.25 -0.44134,0.6544 -0.721709,1.3559 -0.875,2.0937 -0.0047,0.022 -0.02676,0.041 -0.03125,0.062 -0.03222,0.164 -0.07533,0.3346 -0.09375,0.5 -0.0047,0.042 0.0039,0.083 0,0.125 -0.0077,0.086 -0.02719,0.1642 -0.03125,0.25 -0.0052,0.1014 0,0.2099 0,0.3125 4.64e-4,0.1665 0.01719,0.3343 0.03125,0.5 0.0071,0.086 0.02056,0.1654 0.03125,0.25 0.0082,0.064 0.02108,0.1238 0.03125,0.1875 0.01401,0.087 0.01348,0.1641 0.03125,0.25 0.04028,0.1993 0.09617,0.3992 0.15625,0.5938 0.01448,0.046 0.04693,0.079 0.0625,0.125 0.0137,0.041 0.01667,0.084 0.03125,0.125 0.03539,0.097 0.05357,0.1869 0.09375,0.2812 0.02692,0.065 0.06452,0.1234 0.09375,0.1875 0.05899,0.126 0.120171,0.2538 0.1875,0.375 0.02651,0.049 0.03458,0.108 0.0625,0.1563 0.0636,0.1075 0.148774,0.2093 0.21875,0.3125 0.147061,0.2204 0.290742,0.4234 0.46875,0.625 0.08334,0.094 0.192266,0.161 0.28125,0.25 0.197229,0.1974 0.395821,0.4219 0.625,0.5937 0.07796,0.058 0.169218,0.1015 0.25,0.1563 0.08445,0.057 0.163559,0.1043 0.25,0.1562 0.11006,0.067 0.229282,0.1273 0.34375,0.1875 0.484093,0.2495 0.980881,0.4234 1.5,0.5313 0.02158,0 0.04084,0.027 0.0625,0.031 0.10008,0.02 0.21182,0.048 0.3125,0.062 0.285425,0.042 0.578602,0.062 0.875,0.062 0.274168,0 0.54762,-0.026 0.8125,-0.062 0.01001,0 0.02125,0 0.03125,0 0.03395,0 0.05998,-0.026 0.09375,-0.031 0.157639,-0.025 0.313469,-0.056 0.46875,-0.094 0.120847,-0.03 0.257056,-0.057 0.375,-0.094 0.04329,-0.013 0.082,-0.048 0.125,-0.062 0.0194,-0.01 0.04319,0.01 0.0625,0 0.312713,-0.1078 0.613322,-0.2475 0.90625,-0.4063 0.04754,-0.026 0.109492,-0.035 0.15625,-0.062 0.291833,-0.1689 0.549619,-0.3739 0.8125,-0.5937 0.03972,-0.033 0.08616,-0.059 0.125,-0.094 0.09038,-0.08 0.163953,-0.1953 0.25,-0.2812 0.05758,-0.058 0.132262,-0.096 0.1875,-0.1563 0.13682,-0.1481 0.251675,-0.3042 0.375,-0.4687 0.24665,-0.3291 0.456153,-0.6718 0.625,-1.0313 0.08893,-0.1844 0.148789,-0.3685 0.21875,-0.5625 0.02611,-0.074 0.07068,-0.144 0.09375,-0.2187 0.176505,-0.5621 0.28125,-1.1644 0.28125,-1.7813 0,-0.4874 -0.07546,-0.9512 -0.1875,-1.4062 -0.04051,-0.168 -0.101516,-0.3359 -0.15625,-0.5 -0.0097,-0.029 0.01015,-0.065 0,-0.094 -0.229591,-1.0315 0.0104,-1.97 0.4375,-2.7187 0.603992,-0.6575 1.460677,-1.211 2.5625,-1.2813 0.34375,0 0.261557,0 0.34375,0 0.274168,0 0.54762,-0.026 0.8125,-0.062 0.01001,0 0.02125,0 0.03125,0 0.03395,0 0.05998,-0.026 0.09375,-0.031 0.157676,-0.025 0.313415,-0.057 0.46875,-0.094 0.120847,-0.03 0.257056,-0.057 0.375,-0.094 0.04331,-0.013 0.08198,-0.048 0.125,-0.062 0.0194,-0.01 0.04319,0.01 0.0625,0 0.312868,-0.1073 0.613093,-0.2479 0.90625,-0.4063 0.04754,-0.026 0.109492,-0.035 0.15625,-0.062 0.674847,-0.3893 1.255751,-0.9363 1.75,-1.5937 0.184007,-0.2448 0.359221,-0.4875 0.5,-0.75 0.04866,-0.089 0.0808,-0.1896 0.125,-0.2813 0.0403,-0.086 0.08904,-0.1632 0.125,-0.25 0.0094,-0.022 0.02211,-0.04 0.03125,-0.062 0.06202,-0.1549 0.107858,-0.3104 0.15625,-0.4687 0.03125,-0.099 0.06767,-0.211 0.09375,-0.3125 0.02684,-0.1089 0.04188,-0.234 0.0625,-0.3438 0.07226,-0.3693 0.125,-0.736 0.125,-1.125 0,-0.2853 -0.02314,-0.5686 -0.0625,-0.8437 -0.01636,-0.1155 -0.03956,-0.2294 -0.0625,-0.3438 -0.01492,-0.072 -0.04499,-0.1476 -0.0625,-0.2187 -0.04026,-0.168 -0.101753,-0.3358 -0.15625,-0.5 -0.0144,-0.042 -0.01593,-0.083 -0.03125,-0.125 -0.03331,-0.094 -0.0558,-0.1893 -0.09375,-0.2813 -0.02726,-0.064 -0.06435,-0.1247 -0.09375,-0.1875 -0.05148,-0.1134 -0.09761,-0.2334 -0.15625,-0.3437 -0.03287,-0.06 -0.05891,-0.1286 -0.09375,-0.1875 -0.25376,-0.4399 -0.600112,-0.8175 -0.96875,-1.1875 -0.05758,-0.058 -0.09641,-0.1323 -0.15625,-0.1875 -0.147913,-0.1371 -0.304389,-0.2515 -0.46875,-0.375 -0.657444,-0.4943 -1.368555,-0.8448 -2.125,-1.0313 -0.06838,-0.017 -0.149485,-0.016 -0.21875,-0.031 -0.02119,0 -0.04128,-0.027 -0.0625,-0.031 -0.10863,-0.023 -0.201898,-0.046 -0.3125,-0.062 -0.03185,0 -0.06186,0 -0.09375,0 -0.254549,-0.034 -0.518197,-0.062 -0.78125,-0.062 -0.274168,0 -0.54762,0.026 -0.8125,0.062 -0.200702,0.027 -0.396637,0.078 -0.59375,0.125 -0.188181,0.046 -0.381533,0.092 -0.5625,0.1563 -0.02214,0.01 -0.04044,0.023 -0.0625,0.031 -0.09661,0.035 -0.186974,0.054 -0.28125,0.094 -0.06506,0.027 -0.123322,0.065 -0.1875,0.094 -0.12604,0.059 -0.253798,0.1202 -0.375,0.1875 -0.219989,0.1188 -0.419724,0.2279 -0.625,0.375 -0.107515,0.078 -0.210404,0.1656 -0.3125,0.25 -0.05091,0.042 -0.106567,0.081 -0.15625,0.125 -0.09433,0.083 -0.161016,0.1923 -0.25,0.2813 -0.103067,0.1026 -0.216131,0.201 -0.3125,0.3125 -0.02905,0.034 -0.06543,0.06 -0.09375,0.094 -0.05803,0.07 -0.100999,0.1453 -0.15625,0.2188 -0.07094,0.094 -0.153283,0.1832 -0.21875,0.2812 l 0,0.031 c -0.837001,0.965 -2.005682,1.2812 -3,1.2812 l -2,0 c -0.793936,0 -1.682523,-0.2043 -2.4375,-0.7812 -0.0052,-0.7321 0.212602,-1.379 0.53125,-1.9375 0.603992,-0.6575 1.460677,-1.211 2.5625,-1.2813 0.34375,0 0.34375,0 0.34375,0 0.274168,0 0.54762,-0.026 0.8125,-0.062 0.04533,0.01 0.08901,-0.022 0.125,-0.031 0.157676,-0.025 0.313415,-0.057 0.46875,-0.094 0.120847,-0.03 0.257056,-0.057 0.375,-0.094 0.04331,-0.013 0.08198,-0.048 0.125,-0.062 0.0194,-0.01 0.04319,0.01 0.0625,0 0.312868,-0.1073 0.613093,-0.2479 0.90625,-0.4063 0.04754,-0.026 0.109492,-0.035 0.15625,-0.062 0.439856,-0.2538 0.817473,-0.6001 1.1875,-0.9687 0.05758,-0.058 0.132262,-0.096 0.1875,-0.1563 0.137034,-0.1479 0.251438,-0.3044 0.375,-0.4687 0.425209,-0.5656 0.740739,-1.1689 0.9375,-1.8125 0.03125,-0.1 0.06767,-0.211 0.09375,-0.3125 0.02684,-0.1089 0.04188,-0.234 0.0625,-0.3438 0.07226,-0.3693 0.125,-0.736 0.125,-1.125 0,-0.2853 -0.02314,-0.5686 -0.0625,-0.8437 -0.01636,-0.1155 -0.03956,-0.2294 -0.0625,-0.3438 -0.01492,-0.072 -0.04499,-0.1476 -0.0625,-0.2187 -0.04026,-0.168 -0.101753,-0.3358 -0.15625,-0.5 -0.0144,-0.042 -0.01593,-0.083 -0.03125,-0.125 -0.103058,-0.2897 -0.227827,-0.5714 -0.375,-0.8438 -0.02641,-0.048 -0.03485,-0.1095 -0.0625,-0.1562 -0.25376,-0.4399 -0.600112,-0.8175 -0.96875,-1.1875 -0.05758,-0.058 -0.09641,-0.1323 -0.15625,-0.1875 -0.147913,-0.1371 -0.304389,-0.2515 -0.46875,-0.375 -0.657444,-0.4943 -1.368555,-0.8448 -2.125,-1.0313 -0.06838,-0.018 -0.149485,-0.016 -0.21875,-0.031 -0.02119,0 -0.04128,-0.027 -0.0625,-0.031 -0.10863,-0.023 -0.201898,-0.046 -0.3125,-0.062 -0.03185,0 -0.06186,0 -0.09375,0 -0.254549,-0.034 -0.518197,-0.062 -0.78125,-0.062 z m 0,4 c 0.03183,2e-4 0.06188,0 0.09375,0 0.03192,0 0.0623,0 0.09375,0 0.223823,0.023 0.443665,0.085 0.65625,0.1875 0.01276,0.01 0.01864,0.025 0.03125,0.031 0.107555,0.055 0.211706,0.1117 0.3125,0.1875 0.188341,0.1415 0.3451,0.3189 0.46875,0.5 0.06463,0.1 0.141303,0.2007 0.1875,0.3125 0.01893,0.043 0.04687,0.08 0.0625,0.125 0.06877,0.2054 0.09375,0.4235 0.09375,0.6562 -2.1e-4,0.032 0.0018,0.062 0,0.094 -0.0014,0.032 0.0028,0.062 0,0.094 -0.02328,0.2238 -0.08492,0.4437 -0.1875,0.6563 -0.04407,0.097 -0.09799,0.194 -0.15625,0.2812 -0.01676,0.024 -0.04455,0.039 -0.0625,0.062 -0.136422,0.1815 -0.295402,0.3473 -0.46875,0.4688 -0.106169,0.071 -0.223556,0.1378 -0.34375,0.1875 -0.04354,0.019 -0.08044,0.047 -0.125,0.062 -0.205482,0.069 -0.423547,0.094 -0.65625,0.094 -0.06471,0 -0.124595,0.01 -0.1875,0 -0.201527,-0.021 -0.400597,-0.071 -0.59375,-0.1562 -0.02144,-0.01 -0.04148,-0.022 -0.0625,-0.031 -0.09538,-0.046 -0.190789,-0.094 -0.28125,-0.1562 -0.02423,-0.016 -0.03908,-0.045 -0.0625,-0.062 -0.181468,-0.1365 -0.3473,-0.2955 -0.46875,-0.4688 -0.09573,-0.1433 -0.193735,-0.3006 -0.25,-0.4687 -0.02817,-0.08 -0.04516,-0.1672 -0.0625,-0.25 C 18.00521,1020.6366 18,1020.5032 18,1020.3622 c 0,-0.032 -0.0014,-0.062 0,-0.094 0.01299,-0.2327 0.05801,-0.4647 0.15625,-0.6875 0.0089,-0.022 0.02168,-0.042 0.03125,-0.062 0.04603,-0.095 0.09388,-0.1908 0.15625,-0.2813 0.01618,-0.024 0.04529,-0.039 0.0625,-0.062 0.14159,-0.1884 0.318921,-0.3451 0.5,-0.4687 0.137248,-0.089 0.278104,-0.1967 0.4375,-0.25 0.08032,-0.028 0.167129,-0.045 0.25,-0.062 0.131815,-0.026 0.265218,-0.031 0.40625,-0.031 z m -9,12 c 0.03183,2e-4 0.06188,0 0.09375,0 0.03192,0 0.0623,0 0.09375,0 0.223856,0.023 0.443517,0.085 0.65625,0.1875 0.01276,0.01 0.01864,0.025 0.03125,0.031 0.107634,0.055 0.211597,0.1118 0.3125,0.1875 0.338556,0.2537 0.591472,0.5762 0.71875,0.9375 0.01355,0.04 0.02021,0.083 0.03125,0.125 0.05688,0.2037 0.07402,0.413 0.0625,0.625 -0.0014,0.032 0.0028,0.062 0,0.094 -0.02296,0.2239 -0.08522,0.4435 -0.1875,0.6563 -0.0058,0.013 -0.02519,0.019 -0.03125,0.031 -0.05453,0.1076 -0.111872,0.2116 -0.1875,0.3125 -0.13616,0.1817 -0.295578,0.3471 -0.46875,0.4688 -0.106169,0.071 -0.223556,0.1378 -0.34375,0.1875 -0.121933,0.053 -0.246192,0.098 -0.375,0.125 -0.131815,0.026 -0.265218,0.031 -0.40625,0.031 -0.141032,0 -0.274435,-0.01 -0.40625,-0.031 -0.132613,-0.028 -0.246949,-0.069 -0.375,-0.125 -0.02144,-0.01 -0.04148,-0.022 -0.0625,-0.031 -0.01945,-0.01 -0.04323,-0.021 -0.0625,-0.031 -0.095205,-0.047 -0.1960187,-0.095 -0.28125,-0.1563 -0.011204,-0.01 -0.02014,-0.023 -0.03125,-0.031 -0.1816644,-0.1362 -0.3158,-0.2956 -0.4375,-0.4688 -0.09573,-0.1433 -0.193735,-0.3006 -0.25,-0.4687 -0.028284,-0.08 -0.045042,-0.1672 -0.0625,-0.25 C 9.0052097,1032.6366 9,1032.5032 9,1032.3622 c 0,-0.1622 -0.00295,-0.319 0.03125,-0.4687 0.021238,-0.083 0.061382,-0.1692 0.09375,-0.25 0.01295,-0.035 0.047743,-0.06 0.0625,-0.094 0.048431,-0.1044 0.088404,-0.2138 0.15625,-0.3125 0.016181,-0.024 0.04529,-0.039 0.0625,-0.062 0.115675,-0.1543 0.2318505,-0.2951 0.375,-0.4062 0.1671106,-0.1263 0.357603,-0.244 0.5625,-0.3125 0.08028,-0.028 0.167154,-0.045 0.25,-0.062 0.131815,-0.026 0.265218,-0.031 0.40625,-0.031 z m 18,0 c 0.03235,0 0.06183,0 0.09375,0 0.254949,0.014 0.507981,0.071 0.75,0.1875 0.01276,0.01 0.01864,0.025 0.03125,0.031 0.107555,0.055 0.211706,0.1117 0.3125,0.1875 0.188341,0.1415 0.3451,0.3189 0.46875,0.5 0.06463,0.1 0.141303,0.2007 0.1875,0.3125 0.01893,0.043 0.04687,0.08 0.0625,0.125 0.06877,0.2054 0.09375,0.4235 0.09375,0.6562 -2.1e-4,0.032 0.0018,0.062 0,0.094 -0.0014,0.032 0.0028,0.062 0,0.094 -0.02328,0.2238 -0.08492,0.4437 -0.1875,0.6563 -0.04407,0.097 -0.09799,0.194 -0.15625,0.2812 -0.01676,0.024 -0.04455,0.039 -0.0625,0.062 -0.136422,0.1815 -0.295402,0.3473 -0.46875,0.4688 -0.106169,0.071 -0.223556,0.1378 -0.34375,0.1875 -0.04354,0.019 -0.08044,0.047 -0.125,0.062 -0.205482,0.069 -0.423547,0.094 -0.65625,0.094 -0.06471,0 -0.124595,0.01 -0.1875,0 -0.201527,-0.021 -0.400597,-0.071 -0.59375,-0.1562 -0.02144,-0.01 -0.04148,-0.022 -0.0625,-0.031 -0.09538,-0.046 -0.190789,-0.094 -0.28125,-0.1562 -0.02423,-0.016 -0.03908,-0.045 -0.0625,-0.062 -0.181468,-0.1365 -0.3473,-0.2955 -0.46875,-0.4688 -0.09573,-0.1433 -0.193735,-0.3006 -0.25,-0.4687 -0.02817,-0.08 -0.04516,-0.1672 -0.0625,-0.25 C 27.00521,1032.6366 27,1032.5032 27,1032.3622 c 0,-0.032 -0.0014,-0.062 0,-0.094 0.01299,-0.2327 0.05801,-0.4647 0.15625,-0.6875 0.0089,-0.021 0.02168,-0.041 0.03125,-0.062 0.04603,-0.095 0.09388,-0.1908 0.15625,-0.2813 0.01618,-0.024 0.04529,-0.039 0.0625,-0.062 0.14159,-0.1884 0.318921,-0.3451 0.5,-0.4687 0.137248,-0.089 0.278104,-0.1967 0.4375,-0.25 0.08032,-0.028 0.167129,-0.045 0.25,-0.062 0.131815,-0.026 0.265218,-0.031 0.40625,-0.031 z m -9,12 c 0.03183,2e-4 0.06188,0 0.09375,0 0.03192,0 0.0623,0 0.09375,0 0.223856,0.023 0.443517,0.085 0.65625,0.1875 0.01276,0.01 0.01864,0.025 0.03125,0.031 0.107634,0.055 0.211597,0.1118 0.3125,0.1875 0.338556,0.2537 0.591472,0.5762 0.71875,0.9375 0.01355,0.04 0.02021,0.083 0.03125,0.125 0.05689,0.2037 0.07402,0.413 0.0625,0.625 -0.0014,0.032 0.0028,0.062 0,0.094 -0.02296,0.2239 -0.08522,0.4435 -0.1875,0.6563 -0.0058,0.013 -0.02519,0.019 -0.03125,0.031 -0.05453,0.1076 -0.111872,0.2116 -0.1875,0.3125 -0.13616,0.1817 -0.295578,0.3471 -0.46875,0.4688 -0.106169,0.071 -0.223556,0.1378 -0.34375,0.1875 -0.121933,0.053 -0.246192,0.098 -0.375,0.125 -0.131815,0.026 -0.265218,0.031 -0.40625,0.031 -0.141032,0 -0.274435,-0.01 -0.40625,-0.031 -0.132613,-0.028 -0.246949,-0.069 -0.375,-0.125 -0.02144,-0.01 -0.04148,-0.022 -0.0625,-0.031 -0.01945,-0.01 -0.04323,-0.021 -0.0625,-0.031 -0.0952,-0.047 -0.196019,-0.095 -0.28125,-0.1563 -0.0112,-0.01 -0.02014,-0.023 -0.03125,-0.031 -0.181664,-0.1362 -0.3158,-0.2956 -0.4375,-0.4688 -0.09573,-0.1433 -0.193735,-0.3006 -0.25,-0.4687 -0.02828,-0.08 -0.04504,-0.1672 -0.0625,-0.25 C 18.00521,1044.6366 18,1044.5032 18,1044.3622 c 0,-0.1622 -0.0029,-0.319 0.03125,-0.4687 0.02124,-0.083 0.06138,-0.1692 0.09375,-0.25 0.01295,-0.035 0.04774,-0.06 0.0625,-0.094 0.04843,-0.1044 0.0884,-0.2138 0.15625,-0.3125 0.01618,-0.024 0.04529,-0.039 0.0625,-0.062 0.115675,-0.1543 0.23185,-0.2951 0.375,-0.4062 0.167111,-0.1263 0.357603,-0.244 0.5625,-0.3125 0.08028,-0.028 0.167154,-0.045 0.25,-0.062 0.131815,-0.026 0.265218,-0.031 0.40625,-0.031 z"
       id="path5096-7"
       inkscape:connector-curvature="0"
       sodipodi:nodetypes="sccccccccccccccccccccccccscccccccccccccccccccccccccccccccccccccccccccccccccccscccccccccccccsccssccccccccccccccccccccccccccccccccccccccccccccccscccccccccccccscccscccccccccccccccscccccccscccccccccccccccccsccccccccccccccccssccccccccccccccccccscccccccccscccccsccccccccccccccccccsccccccccsccccccccccccccsccccccscccscccccccccscccccccccsccccccccccccccccsccccccccsccccccccscccccsccccccscccscccccccccsccccccccc" />
  </g>
</svg>
